<?xml version="1.0"?>
<svg xmlns="http://www.w3.org/2000/svg" viewBox="0 0 32 32"><g id="Layer_2" data-name="Layer 2"><path d="M29.707,28.293l-26-26A.99989.99989,0,0,0,2.293,3.707L5.12122,6.53528C5.11841,6.541,5.11267,6.54419,5.11,6.55l-3,6A.99539.99539,0,0,0,3,14H5V25a.99974.99974,0,0,0,1,1H24.58594l3.707,3.707A.99989.99989,0,0,0,29.707,28.293ZM5,12H4.62L6.60864,8.02271,10.58594,12Z"/><path d="M18.38,8l-2,4H14.41l2,2L27,24.59V14h2a.99539.99539,0,0,0,.89-1.45l-3-6A.97705.97705,0,0,0,26,6H8.41l2,2Zm7,0,2,4H23.62l-2-4Z"/></g></svg>
