<svg width="100%" height="100%" viewBox="0 0 432 432" version="1.1" xmlns="http://www.w3.org/2000/svg" xmlns:xlink="http://www.w3.org/1999/xlink" xml:space="preserve" xmlns:serif="http://www.serif.com/" style="fill-rule:evenodd;clip-rule:evenodd;stroke-linejoin:round;stroke-miterlimit:2;">
    <g transform="matrix(4.16667,0,0,4.16667,-1635.53,-1519.79)">
        <g transform="matrix(0.142577,0,0,0.142577,56.9998,46.0001)">
            <g transform="matrix(7.01377,0,0,7.01377,-399.783,-322.634)">
                <path d="M444.277,364.75C472.838,364.75 496.027,387.938 496.027,416.5C496.027,445.061 472.838,468.249 444.277,468.249C415.715,468.249 392.527,445.061 392.527,416.5C392.527,387.938 415.715,364.75 444.277,364.75ZM469.68,412.036L462.315,417.135C459.238,419.265 457.402,422.77 457.402,426.512L457.402,437.589C457.402,438.625 456.703,439.531 455.701,439.795L412.363,451.199C410.674,451.644 409.132,450.102 409.577,448.413L420.982,405.075C421.245,404.073 422.151,403.375 423.188,403.375L434.265,403.375C438.007,403.375 441.511,401.539 443.641,398.462L448.74,391.096L469.68,412.036ZM429.849,427.701L417.013,440.538C416.122,441.429 416.122,442.873 417.013,443.764C417.904,444.654 419.348,444.654 420.238,443.764L433.075,430.927C434.205,431.539 435.498,431.887 436.873,431.887C441.282,431.887 444.856,428.312 444.856,423.903C444.856,419.494 441.282,415.92 436.873,415.92C432.464,415.92 428.89,419.494 428.89,423.903C428.89,425.278 429.238,426.572 429.849,427.701ZM436.873,427.325C434.984,427.325 433.452,425.793 433.452,423.903C433.452,422.014 434.984,420.482 436.873,420.482C438.763,420.482 440.295,422.014 440.295,423.903C440.295,425.793 438.763,427.325 436.873,427.325ZM451.38,387.284L460.088,374.705C460.898,373.535 462.57,373.384 463.577,374.391L486.386,397.2C487.392,398.206 487.241,399.878 486.071,400.688L473.492,409.397L451.38,387.284Z"/>
            </g>
        </g>
    </g>
</svg>
