<svg fill="none" height="512" viewBox="0 0 24 24" width="512" xmlns="http://www.w3.org/2000/svg"><path d="m18 4v8c0 .663-.2634 1.2989-.7322 1.7678-.4689.4688-1.1048.7322-1.7678.7322h-6.5v-2.5c0-.4045-.24364-.7691-.61732-.9239-.37367-.1548-.80379-.0692-1.08979.2168l-4 4c-.39052.3905-.39052 1.0237 0 1.4142l4 4c.286.286.71612.3715 1.08979.2167.37368-.1547.61732-.5194.61732-.9238v-2.5h6.5c1.4587 0 2.8576-.5795 3.8891-1.6109 1.0314-1.0315 1.6109-2.4304 1.6109-3.8891v-8c0-.55228-.4477-1-1-1h-1c-.5523 0-1 .44772-1 1z" fill="#1e1e1e"/></svg>